<?xml version="1.0" encoding="utf-8"?>
<!-- Generator: Adobe Illustrator 21.0.0, SVG Export Plug-In . SVG Version: 6.00 Build 0)  -->
<svg version="1.1" id="Layer_1" xmlns="http://www.w3.org/2000/svg" xmlns:xlink="http://www.w3.org/1999/xlink" x="0px" y="0px"
	 viewBox="0 0 457.3 74.7" style="enable-background:new 0 0 457.3 74.7;" xml:space="preserve">
<style type="text/css">
	.st0{fill:#F26D6D;}
	.st1{fill:#319BD6;}
</style>
<g>
	<path class="st0" d="M14.9,57.3c-5-5-7.8-11.8-7.8-19c0-7.1,2.8-13.8,7.8-18.9c5-5.1,11.8-7.9,19-7.9c7.1,0,13.8,2.8,19,7.9
		c0.8,0.8,1.2,1.9,1.2,3.1c0,1.1-0.4,2.3-1.3,3.2c-0.9,0.9-2,1.3-3.1,1.3c-1.1,0-2.3-0.4-3.1-1.3c-3.4-3.4-7.9-5.2-12.6-5.2
		c-4.8,0-9.3,1.8-12.6,5.2c-3.4,3.4-5.3,7.9-5.3,12.6c0,4.7,1.9,9.3,5.3,12.6c3.4,3.5,8,5.3,12.6,5.3c4.1,0,8-1.4,11.3-4.1v-9.4H34
		c-2.4,0-4.5-2-4.5-4.4s2.1-4.4,4.5-4.4h15.6c2.4,0,4.4,2,4.4,4.4V54c0,1.2-0.5,2.4-1.3,3.2c-5.2,5.2-12.1,7.8-18.9,7.8
		C26.9,65.1,20.1,62.5,14.9,57.3z"/>
	<path class="st0" d="M92.2,63.1l-23.1-33v30.5c0,2.4-2.1,4.4-4.5,4.4c-2.4,0-4.4-2-4.4-4.4V16c0-2.3,1.8-4.4,4.5-4.4
		c1.4,0,2.8,0.7,3.6,1.9l23.1,33V16c0-2.4,2-4.4,4.5-4.4c2.4,0,4.4,2,4.4,4.4v44.7c0,2.4-2,4.4-4.4,4.4C94.4,65.1,93,64.4,92.2,63.1
		z"/>
	<path class="st0" d="M106.4,38.3c0-14.8,11.5-26.8,25.6-26.8c14.1,0,25.7,12,25.7,26.8c0,14.8-11.5,26.8-25.7,26.8
		C117.9,65.1,106.4,53,106.4,38.3z M115.3,38.3c0,9.9,7.5,17.8,16.7,17.8c9.3,0,16.7-8,16.7-17.8c0-9.9-7.5-17.8-16.7-17.8
		C122.8,20.5,115.3,28.4,115.3,38.3z"/>
	<path class="st0" d="M204,60.6V29.3l-12,16.1c-0.8,1.1-2.2,1.8-3.6,1.8c-1.4,0-2.8-0.7-3.6-1.8l-12-16.1v31.3c0,2.4-2,4.4-4.5,4.4
		c-2.4,0-4.4-2-4.4-4.4V16c0-2.4,1.9-4.4,4.5-4.4c1.4,0,2.7,0.6,3.5,1.8l16.5,22l16.5-22c0.8-1.1,2.1-1.8,3.5-1.8
		c2.6,0,4.5,2.1,4.5,4.4v44.7c0,2.4-2,4.4-4.5,4.4C206,65.1,204,63.1,204,60.6z"/>
	<path class="st0" d="M252.5,60.6c0,2.4-2,4.4-4.5,4.4h-24.5c-2.5,0-4.5-2-4.5-4.4V16c0-2.4,2-4.4,4.5-4.4H248c2.5,0,4.5,2,4.5,4.4
		c0,2.5-2,4.5-4.5,4.5h-20v13.4h15.6c2.4,0,4.4,2,4.4,4.4s-2,4.4-4.4,4.4H228v13.4h20C250.6,56.1,252.5,58.1,252.5,60.6z"/>
	<path class="st0" d="M294.4,48.3c0,10.3-8.5,16.7-15.7,16.7h-15.6c-2.4,0-4.4-2-4.4-4.4V16c0-2.4,2-4.4,4.4-4.4h12.3
		c0.4,0,3.7,0.2,7,1.8c4.9,2.4,7.5,6.9,7.5,12.8c0,3.2-0.8,6.1-2.4,8.4C291.9,37.4,294.4,42.3,294.4,48.3z M267.6,31.6h6.7
		c1.1,0,6.7-0.2,6.7-5.6c0-5.1-3.5-5.6-5-5.6c-0.4,0-0.6,0-0.6,0h-7.8V31.6z M285.4,48.3c0-2.8-1.8-7.8-7.3-7.8h-10.6v15.6h10.6
		c0.1,0,2.1-0.1,4-1.1C285.1,53.4,285.4,50.4,285.4,48.3z"/>
	<path class="st0" d="M334.4,58.2c0.5,0.8,0.7,1.5,0.7,2.4c0,1.5-0.8,2.9-2.1,3.7c-0.7,0.5-1.5,0.7-2.3,0.7c-1.5,0-3-0.8-3.8-2.1
		l-9.9-15.8h-7.5v13.4c0,2.4-2.1,4.4-4.5,4.4s-4.4-2-4.4-4.4V16c0-2.4,2-4.4,4.4-4.4h12.2c0.5,0,4.5,0.1,8.7,2.1
		c6,3,9.3,8.5,9.3,15.7c0,0.5-0.1,4.6-2.1,8.7c-1.6,3.1-3.9,5.5-6.7,7L334.4,58.2z M309.4,38.3h7.6c3.8,0,6.3-1.3,7.7-4.1
		c1.2-2.3,1.3-4.7,1.3-4.9c0-3.8-1.4-6.3-4.3-7.7c-2.3-1.1-4.7-1.1-4.7-1.1h-7.6V38.3z"/>
	<path class="st0" d="M374.7,60.6c0,2.4-2,4.4-4.5,4.4h-24.5c-2.5,0-4.5-2-4.5-4.4V16c0-2.4,2-4.4,4.5-4.4h24.5c2.5,0,4.5,2,4.5,4.4
		c0,2.5-2,4.5-4.5,4.5h-20v13.4h15.6c2.4,0,4.4,2,4.4,4.4s-2,4.4-4.4,4.4h-15.6v13.4h20C372.7,56.1,374.7,58.1,374.7,60.6z"/>
	<path class="st0" d="M446.9,16c0,0.5-0.1,1.1-0.3,1.7L428,62.3c-0.7,1.7-2.3,2.8-4.1,2.8c-1.8,0-3.4-1.1-4.1-2.8l-5.9-14.1l-6,14.1
		c-0.7,1.7-2.3,2.8-4.1,2.8c-1.8,0-3.4-1.1-4.1-2.8l-18.7-44.6c-0.2-0.5-0.3-1.1-0.3-1.7c0-2.3,1.8-4.5,4.5-4.5
		c1.8,0,3.4,1.1,4.1,2.8L403.9,49l5.1-12.5l-7.8-18.8c-0.2-0.5-0.4-1.1-0.4-1.8c0-2.3,1.8-4.4,4.5-4.4c2.1,0,3.4,1.1,4.1,2.8
		l4.5,10.7l4.4-10.7c0.7-1.7,2.3-2.8,4.1-2.8c2.7,0,4.5,2.2,4.5,4.5c0,0.5-0.1,1.1-0.3,1.7l-7.9,18.8l5.2,12.5l14.5-34.7
		c0.7-1.7,2.3-2.8,4.1-2.8c0.6,0,1.2,0.2,1.8,0.4C445.9,12.6,446.9,14.3,446.9,16z"/>
</g>
<g>
	<path class="st1" d="M17.9,52.6c-5-5-7.8-11.8-7.8-19c0-7.1,2.8-13.8,7.8-18.9c5-5.1,11.8-7.9,19-7.9c7.1,0,13.8,2.8,19,7.9
		c0.8,0.8,1.2,1.9,1.2,3.1c0,1.1-0.4,2.3-1.3,3.2c-0.9,0.9-2,1.3-3.1,1.3c-1.1,0-2.3-0.4-3.1-1.3c-3.4-3.4-7.9-5.2-12.6-5.2
		c-4.8,0-9.3,1.8-12.6,5.2c-3.4,3.4-5.3,7.9-5.3,12.6c0,4.7,1.9,9.3,5.3,12.6c3.4,3.5,8,5.3,12.6,5.3c4.1,0,8-1.4,11.3-4.1v-9.4H37
		c-2.4,0-4.5-2-4.5-4.4s2.1-4.4,4.5-4.4h15.6c2.4,0,4.4,2,4.4,4.4v15.8c0,1.2-0.5,2.4-1.3,3.2c-5.2,5.2-12.1,7.8-18.9,7.8
		C29.9,60.4,23.1,57.8,17.9,52.6z"/>
	<path class="st1" d="M95.2,58.5l-23.1-33V56c0,2.4-2.1,4.4-4.5,4.4s-4.4-2-4.4-4.4V11.3c0-2.3,1.8-4.4,4.5-4.4
		c1.4,0,2.8,0.7,3.6,1.9l23.1,33V11.3c0-2.4,2-4.4,4.5-4.4c2.4,0,4.4,2,4.4,4.4V56c0,2.4-2,4.4-4.4,4.4C97.4,60.4,96,59.7,95.2,58.5
		z"/>
	<path class="st1" d="M109.4,33.6c0-14.8,11.5-26.8,25.6-26.8c14.1,0,25.7,12,25.7,26.8S149.2,60.4,135,60.4
		C120.9,60.4,109.4,48.4,109.4,33.6z M118.3,33.6c0,9.9,7.5,17.8,16.7,17.8c9.3,0,16.7-8,16.7-17.8s-7.5-17.8-16.7-17.8
		C125.8,15.8,118.3,23.8,118.3,33.6z"/>
	<path class="st1" d="M207,56V24.7l-12,16.1c-0.8,1.1-2.2,1.8-3.6,1.8c-1.4,0-2.8-0.7-3.6-1.8l-12-16.1V56c0,2.4-2,4.4-4.5,4.4
		c-2.4,0-4.4-2-4.4-4.4V11.3c0-2.4,1.9-4.4,4.5-4.4c1.4,0,2.7,0.6,3.5,1.8l16.5,22l16.5-22c0.8-1.1,2.1-1.8,3.5-1.8
		c2.6,0,4.5,2.1,4.5,4.4V56c0,2.4-2,4.4-4.5,4.4C209,60.4,207,58.4,207,56z"/>
	<path class="st1" d="M255.5,56c0,2.4-2,4.4-4.5,4.4h-24.5c-2.5,0-4.5-2-4.5-4.4V11.3c0-2.4,2-4.4,4.5-4.4H251c2.5,0,4.5,2,4.5,4.4
		c0,2.5-2,4.5-4.5,4.5h-20v13.4h15.6c2.4,0,4.4,2,4.4,4.4s-2,4.4-4.4,4.4H231v13.4h20C253.6,51.4,255.5,53.4,255.5,56z"/>
	<path class="st1" d="M297.4,43.6c0,10.3-8.5,16.7-15.7,16.7h-15.6c-2.4,0-4.4-2-4.4-4.4V11.3c0-2.4,2-4.4,4.4-4.4h12.3
		c0.4,0,3.7,0.2,7,1.8c4.9,2.4,7.5,6.9,7.5,12.8c0,3.2-0.8,6.1-2.4,8.4C294.9,32.7,297.4,37.6,297.4,43.6z M270.6,27h6.7
		c1.1,0,6.7-0.2,6.7-5.6c0-5.1-3.5-5.6-5-5.6c-0.4,0-0.6,0-0.6,0h-7.8V27z M288.4,43.6c0-2.8-1.8-7.8-7.3-7.8h-10.6v15.6h10.6
		c0.1,0,2.1-0.1,4-1.1C288.1,48.7,288.4,45.7,288.4,43.6z"/>
	<path class="st1" d="M337.4,53.6c0.5,0.8,0.7,1.5,0.7,2.4c0,1.5-0.8,2.9-2.1,3.7c-0.7,0.5-1.5,0.7-2.3,0.7c-1.5,0-3-0.8-3.8-2.1
		l-9.9-15.8h-7.5V56c0,2.4-2.1,4.4-4.5,4.4s-4.4-2-4.4-4.4V11.3c0-2.4,2-4.4,4.4-4.4h12.2c0.5,0,4.5,0.1,8.7,2.1
		c6,3,9.3,8.5,9.3,15.7c0,0.5-0.1,4.6-2.1,8.7c-1.6,3.1-3.9,5.5-6.7,7L337.4,53.6z M312.4,33.6h7.6c3.8,0,6.3-1.3,7.7-4.1
		c1.2-2.3,1.3-4.7,1.3-4.9c0-3.8-1.4-6.3-4.3-7.7c-2.3-1.1-4.7-1.1-4.7-1.1h-7.6V33.6z"/>
	<path class="st1" d="M377.7,56c0,2.4-2,4.4-4.5,4.4h-24.5c-2.5,0-4.5-2-4.5-4.4V11.3c0-2.4,2-4.4,4.5-4.4h24.5c2.5,0,4.5,2,4.5,4.4
		c0,2.5-2,4.5-4.5,4.5h-20v13.4h15.6c2.4,0,4.4,2,4.4,4.4s-2,4.4-4.4,4.4h-15.6v13.4h20C375.7,51.4,377.7,53.4,377.7,56z"/>
	<path class="st1" d="M449.9,11.4c0,0.5-0.1,1.1-0.3,1.7L431,57.6c-0.7,1.7-2.3,2.8-4.1,2.8c-1.8,0-3.4-1.1-4.1-2.8l-5.9-14.1
		l-6,14.1c-0.7,1.7-2.3,2.8-4.1,2.8c-1.8,0-3.4-1.1-4.1-2.8L384.1,13c-0.2-0.5-0.3-1.1-0.3-1.7c0-2.3,1.8-4.5,4.5-4.5
		c1.8,0,3.4,1.1,4.1,2.8l14.5,34.7l5.1-12.5L404.2,13c-0.2-0.5-0.4-1.1-0.4-1.8c0-2.3,1.8-4.4,4.5-4.4c2.1,0,3.4,1.1,4.1,2.8
		l4.5,10.7l4.4-10.7c0.7-1.7,2.3-2.8,4.1-2.8c2.7,0,4.5,2.2,4.5,4.5c0,0.5-0.1,1.1-0.3,1.7l-7.9,18.8l5.2,12.5l14.5-34.7
		c0.7-1.7,2.3-2.8,4.1-2.8c0.6,0,1.2,0.2,1.8,0.4C448.9,7.9,449.9,9.6,449.9,11.4z"/>
</g>
</svg>
